<?xml version="1.0" encoding="utf-8"?>
<!-- Generator: Adobe Illustrator 23.0.1, SVG Export Plug-In . SVG Version: 6.00 Build 0)  -->
<svg version="1.1" id="Capa_1" xmlns="http://www.w3.org/2000/svg" xmlns:xlink="http://www.w3.org/1999/xlink" x="0px" y="0px"
	 viewBox="0 0 274.47 269.29" style="enable-background:new 0 0 274.47 269.29;" xml:space="preserve">
<style type="text/css">
	.st0{fill:none;}
	.st1{fill:#FFFFFF;}
	.st2{fill:#FFFDFD;}
</style>
<g>
	<path class="st0" d="M0,272.58C0,181.09,0,89.6,0-1.93c91.46,0,182.93,0,274.47,0c0,91.48,0,182.99,0,274.51
		C182.99,272.58,91.5,272.58,0,272.58z M134.48,262.1c70.55,0.99,128.43-54.62,129.52-124.31C265.13,66.02,208.84,8.45,137.65,7.85
		C67.49,7.26,10.35,63.99,9.85,134.75C9.36,203.51,66.11,261.5,134.48,262.1z"/>
	<path class="st1" d="M134.48,262.1C66.11,261.5,9.36,203.51,9.85,134.75c0.5-70.76,57.64-127.49,127.8-126.9
		c71.18,0.6,127.48,58.16,126.35,129.94C262.91,207.48,205.04,263.08,134.48,262.1z M97.17,49.17c0.4-0.02,0.79-0.04,1.19-0.06
		c0.34,1.21,0.89,2.4,0.98,3.62c0.9,12.37,1.64,24.76,2.6,37.13c0.42,5.46-1.26,10.07-4.78,14.1c-2.5,2.86-3.34,6.19-3.12,9.9
		c0.45,7.56,0.89,15.13,1.25,22.7c0.07,1.47,0.49,2.16,2.04,2.16c11.23-0.02,22.47,0.03,33.7-0.09c0.69-0.01,1.88-1.14,1.97-1.86
		c0.38-2.98,0.49-6,0.59-9.01c0.1-3.02-1.1-5.34-4.04-6.49c-2.76-1.09-3.86-3.04-3.62-6c0.85-10.36,1.17-20.79,2.51-31.08
		c1.43-10.99,4.43-21.67,10.26-31.28c0.95-1.57,2.72-3.02,4.44-3.68c3.13-1.2,4.96,0.29,4.8,3.63c-0.59,12.95-1.42,25.89-1.9,38.84
		c-0.54,14.77-0.8,29.56-1.2,44.33c-0.05,1.68,0.25,2.73,2.36,2.71c11.78-0.08,23.56-0.07,35.34-0.02c1.76,0.01,2.4-0.67,2.49-2.39
		c0.3-5.84,0.7-11.67,1.08-17.5c0.22-3.43-0.75-6.45-2.74-9.25c-3.07-4.31-6.14-8.63-9.01-13.08c-9.04-14.03-4.48-31.95,3.35-40.93
		c7.28-8.36,18.08-8.86,25.24-0.47c8.8,10.31,11.84,22.43,6.65,35.21c-2.77,6.82-7.56,12.84-11.64,19.09
		c-1.93,2.96-3,6.01-2.79,9.52c0.34,5.47,0.79,10.93,0.96,16.41c0.08,2.69,1.02,3.53,3.76,3.51c17.63-0.15,35.25-0.17,52.88-0.12
		c2.24,0.01,2.73-0.79,2.76-2.85c0.24-20.54-4.5-39.87-14.37-57.83c-23.49-42.76-69.7-66.67-118.15-60.76
		C86.72,21.71,58.35,39.61,38,69.87c-13.35,19.85-19.74,41.98-19.57,65.95c0.01,1.72,0.06,2.93,2.4,2.92
		c20.09-0.07,40.19-0.05,60.28-0.02c1.66,0,2.53-0.5,2.61-2.3c0.36-7.84,0.83-15.68,1.18-23.52c0.14-3.21-0.89-6.05-2.92-8.61
		c-2.49-3.16-4.95-6.47-5.04-10.72c-0.3-14.09,0.61-28.11,2.83-42.03c0.13-0.84,0.72-1.62,1.1-2.42c0.39,0.05,0.78,0.1,1.17,0.15
		c0.07,2.45,0.21,4.91,0.2,7.36c-0.03,8.49-0.16,16.98-0.13,25.47c0,1.32,0.66,2.64,1.01,3.96c0.39-0.05,0.78-0.1,1.17-0.15
		c0.23-1.37,0.62-2.74,0.65-4.11c0.16-8.22,0.22-16.43,0.35-24.65c0.03-2.19,0.14-4.38,0.35-6.56c0.04-0.45,0.72-0.84,1.11-1.26
		c0.3,0.4,0.77,0.77,0.86,1.21c0.15,0.8,0.08,1.64,0.09,2.46c0.02,9.59-0.02,19.17,0.14,28.76c0.02,1.4,1.04,2.78,1.59,4.17
		c0.47-1.35,1.32-2.7,1.35-4.06c0.23-9.58,0.28-19.17,0.42-28.76c0.02-1.27,0.23-2.55,0.36-3.82c0.38-0.03,0.77-0.07,1.15-0.1
		c0.29,1.27,0.82,2.54,0.84,3.82c0.1,6.57,0.02,13.15,0.09,19.73c0.04,3.47,0.18,6.94,0.44,10.39c0.07,0.95,0.76,1.85,1.17,2.77
		c0.5-0.96,1.37-1.88,1.45-2.87c0.26-3.18,0.33-6.38,0.29-9.57c-0.08-6.85-0.3-13.69-0.38-20.54C96.6,51.67,96.98,50.42,97.17,49.17
		z M19.3,147.36c0,0.87-0.07,1.59,0.01,2.28c1.54,12.51,5.05,24.45,10.33,35.9c0.94,2.03,2.09,2.78,4.34,2.77
		c15.25-0.11,30.49-0.09,45.74-0.09c53.41,0,106.82-0.01,160.23,0.06c2.35,0,3.68-0.63,4.47-2.91c2.38-6.89,5.22-13.64,7.28-20.63
		c1.63-5.54,2.37-11.35,3.57-17.39C176.21,147.36,97.85,147.36,19.3,147.36z M237.59,197.08c-0.7-0.11-1.14-0.23-1.57-0.23
		c-11.96-0.02-23.92-0.01-35.88-0.07c-1.88-0.01-2.32,0.85-2.31,2.5c0.03,4.75-0.02,9.5-0.05,14.24c-0.02,3.28-1.63,5.59-4.59,6.82
		c-4.71,1.97-9.54-1.41-9.78-6.97c-0.2-4.65-0.12-9.31-0.06-13.97c0.02-1.77-0.37-2.63-2.41-2.61c-10.77,0.08-21.55,0.07-32.32-0.02
		c-2-0.02-2.49,0.78-2.45,2.58c0.08,4.47,0.06,8.95,0.03,13.42c-0.03,4.95-2.93,8.26-7.18,8.29c-4.27,0.02-7.26-3.26-7.32-8.14
		c-0.05-4.47-0.08-8.95,0.02-13.42c0.05-1.99-0.61-2.73-2.66-2.71c-9.95,0.08-19.9,0.07-29.86,0c-1.92-0.01-2.58,0.71-2.56,2.55
		c0.06,4.56,0.05,9.13-0.02,13.7c-0.07,4.64-3.23,7.93-7.39,7.83c-4.01-0.09-6.97-3.39-7.02-7.91c-0.05-4.47-0.13-8.95,0.02-13.42
		c0.07-2.23-0.77-2.76-2.85-2.75c-13.42,0.07-26.84,0.02-40.27,0.03c-0.87,0-1.74,0.11-2.73,0.17
		c14.89,26.86,50.32,54.78,95.83,56.5C182.62,255.39,220.91,226.21,237.59,197.08z"/>
	<path class="st0" d="M97.17,49.17c-0.2,1.25-0.58,2.49-0.56,3.74c0.08,6.85,0.3,13.69,0.38,20.54c0.04,3.19-0.03,6.39-0.29,9.57
		c-0.08,0.99-0.94,1.92-1.45,2.87c-0.41-0.92-1.1-1.82-1.17-2.77c-0.26-3.45-0.4-6.92-0.44-10.39c-0.07-6.57,0.01-13.15-0.09-19.73
		c-0.02-1.28-0.55-2.55-0.84-3.82c-0.38,0.03-0.77,0.07-1.15,0.1c-0.12,1.27-0.34,2.55-0.36,3.82c-0.14,9.59-0.19,19.17-0.42,28.76
		c-0.03,1.36-0.88,2.71-1.35,4.06c-0.56-1.39-1.57-2.77-1.59-4.17c-0.16-9.58-0.11-19.17-0.14-28.76c0-0.82,0.07-1.66-0.09-2.46
		c-0.09-0.44-0.56-0.81-0.86-1.21c-0.39,0.42-1.06,0.8-1.11,1.26c-0.21,2.18-0.32,4.37-0.35,6.56c-0.13,8.22-0.19,16.43-0.35,24.65
		c-0.03,1.37-0.42,2.74-0.65,4.11c-0.39,0.05-0.78,0.1-1.17,0.15c-0.35-1.32-1-2.64-1.01-3.96c-0.03-8.49,0.1-16.98,0.13-25.47
		c0.01-2.45-0.13-4.91-0.2-7.36c-0.39-0.05-0.78-0.1-1.17-0.15c-0.38,0.81-0.96,1.58-1.1,2.42c-2.22,13.92-3.13,27.94-2.83,42.03
		c0.09,4.26,2.55,7.56,5.04,10.72c2.02,2.57,3.06,5.4,2.92,8.61c-0.35,7.84-0.83,15.68-1.18,23.52c-0.08,1.8-0.94,2.3-2.61,2.3
		c-20.09-0.03-40.19-0.05-60.28,0.02c-2.34,0.01-2.39-1.2-2.4-2.92c-0.17-23.98,6.21-46.1,19.57-65.95
		c20.35-30.26,48.72-48.16,85.01-52.59c48.45-5.91,94.66,18,118.15,60.76c9.87,17.97,14.62,37.3,14.37,57.83
		c-0.02,2.06-0.52,2.86-2.76,2.85c-17.63-0.05-35.25-0.04-52.88,0.12c-2.74,0.02-3.68-0.82-3.76-3.51
		c-0.17-5.47-0.62-10.94-0.96-16.41c-0.22-3.51,0.85-6.56,2.79-9.52c4.08-6.25,8.87-12.27,11.64-19.09
		c5.19-12.79,2.16-24.91-6.65-35.21c-7.17-8.39-17.96-7.89-25.24,0.47c-7.83,8.99-12.39,26.91-3.35,40.93
		c2.87,4.45,5.94,8.76,9.01,13.08c1.99,2.8,2.96,5.82,2.74,9.25c-0.38,5.83-0.78,11.66-1.08,17.5c-0.09,1.72-0.73,2.4-2.49,2.39
		c-11.78-0.04-23.56-0.06-35.34,0.02c-2.11,0.01-2.41-1.03-2.36-2.71c0.4-14.78,0.66-29.56,1.2-44.33
		c0.48-12.95,1.31-25.89,1.9-38.84c0.15-3.34-1.67-4.83-4.8-3.63c-1.72,0.66-3.49,2.1-4.44,3.68c-5.83,9.6-8.83,20.29-10.26,31.28
		c-1.34,10.3-1.66,20.72-2.51,31.08c-0.24,2.97,0.86,4.92,3.62,6c2.94,1.16,4.14,3.47,4.04,6.49c-0.1,3.01-0.21,6.03-0.59,9.01
		c-0.09,0.72-1.28,1.85-1.97,1.86c-11.23,0.11-22.47,0.06-33.7,0.09c-1.55,0-1.98-0.68-2.04-2.16c-0.36-7.57-0.8-15.13-1.25-22.7
		c-0.22-3.71,0.62-7.04,3.12-9.9c3.52-4.03,5.2-8.64,4.78-14.1c-0.95-12.37-1.7-24.76-2.6-37.13c-0.09-1.22-0.64-2.41-0.98-3.62
		C97.97,49.13,97.57,49.15,97.17,49.17z"/>
	<path class="st2" d="M19.3,147.36c78.55,0,156.91,0,235.96,0c-1.2,6.04-1.94,11.84-3.57,17.39c-2.06,6.98-4.9,13.73-7.28,20.63
		c-0.79,2.28-2.11,2.91-4.47,2.91c-53.41-0.07-106.82-0.06-160.23-0.06c-15.25,0-30.49-0.02-45.74,0.09
		c-2.25,0.02-3.4-0.74-4.34-2.77c-5.28-11.45-8.79-23.39-10.33-35.9C19.22,148.95,19.3,148.24,19.3,147.36z M139.53,181.77
		c1.21,0.22,2.63,0.6,4.07,0.73c2.58,0.23,3.74-0.93,3.85-3.65c0.11-2.67,0.7-5.33,1.23-7.96c0.19-0.94,0.68-1.9,1.29-2.66
		c1.07-1.34,3.4-1.15,3.84,0.32c0.54,1.8,0.8,3.7,1.1,5.57c0.33,2.04,0.41,4.13,0.87,6.13c0.51,2.2,2.3,2.8,5.37,2.35
		c2.44-0.36,1.62-2.14,1.46-3.37c-0.28-2.23-0.93-4.42-1.41-6.62c-1.22-5.64-2.37-11.3-3.69-16.92c-0.48-2.03-1.82-3.27-4.17-3.08
		c-1.63,0.13-3.28,0.06-4.92,0.06c-2.05,0-3.16,0.81-3.29,3.05c-0.1,1.78-0.62,3.55-1.04,5.31c-0.84,3.5-1.82,6.97-2.6,10.48
		C140.77,174.75,140.24,178.01,139.53,181.77z M192.52,165.45c-0.36-0.03-0.72-0.05-1.08-0.08c-0.45-0.71-1.23-1.39-1.3-2.13
		c-0.21-2.39-0.22-4.8-0.19-7.2c0.02-1.83-0.66-3.07-2.55-3.21c-2.05-0.16-2.21,1.22-2.27,2.88c-0.28,7.67-0.61,15.33-1.06,22.99
		c-0.2,3.4-0.03,3.74,3.39,3.75c0.55,0,1.1-0.09,1.64-0.06c1.95,0.13,2.35-1.05,2.2-2.62c-0.19-2.02-0.59-4.02-0.66-6.04
		c-0.04-1.16,0.39-2.33,0.62-3.5c0.36-0.09,0.72-0.18,1.08-0.26c1.2,2.18,2.71,4.25,3.54,6.57c2.09,5.87,3.83,7.17,8.96,5.31
		c-1.67-3.25-3.08-6.57-4.98-9.57c-2.3-3.64-2.39-6.34-0.09-9.65c1.96-2.81,3.59-5.86,5.36-8.79c-3.02-1.94-5.23-1.47-6.78,1.26
		C196.39,158.56,194.46,162.01,192.52,165.45z M115.06,157.42c0.12-0.4,0.25-0.8,0.37-1.2c-1.36-1.13-2.59-2.93-4.11-3.24
		c-2.8-0.56-5.79-0.38-8.68-0.23c-1,0.05-2.51,0.75-2.8,1.53c-0.69,1.82-0.89,3.86-1.09,5.83c-0.62,6.09-1.12,12.19-1.74,18.28
		c-0.29,2.81,0.73,4.16,3.56,4.19c4.74,0.05,9.47,0.08,14.21,0.02c0.85-0.01,2.09-0.25,2.44-0.82c0.57-0.92,0.81-2.24,0.68-3.32
		c-0.06-0.49-1.32-1.16-2.06-1.19c-2.99-0.12-5.99-0.09-8.98,0.04c-1.54,0.06-2.21-0.5-2.18-2.01c0.08-4.47,0.12-8.95,0.22-13.42
		c0.09-3.91,0.78-4.37,4.79-4.05C111.45,157.98,113.27,157.57,115.06,157.42z M71.36,182.48c0.1,0.22,0.2,0.44,0.31,0.66
		c1.3-0.81,3.67-1.57,3.72-2.45c0.23-4.18-0.1-8.4-0.36-12.6c-0.25-3.99-0.73-7.96-0.95-11.95c-0.09-1.71-0.14-3.15-2.37-3.14
		c-2.15,0.01-2.13,1.45-2.15,3.01c-0.04,3.27-0.12,6.55-0.28,9.82c-0.23,4.65-0.55,9.3-0.85,13.94
		C68.3,181.87,69.08,182.94,71.36,182.48z"/>
	<path class="st0" d="M237.59,197.08c-16.69,29.13-54.97,58.3-105.38,56.4c-45.51-1.72-80.95-29.64-95.83-56.5
		c0.99-0.07,1.86-0.17,2.73-0.17c13.42,0,26.84,0.04,40.27-0.03c2.09-0.01,2.93,0.52,2.85,2.75c-0.15,4.47-0.07,8.95-0.02,13.42
		c0.05,4.52,3.01,7.82,7.02,7.91c4.15,0.1,7.31-3.19,7.39-7.83c0.07-4.56,0.07-9.13,0.02-13.7c-0.02-1.84,0.64-2.56,2.56-2.55
		c9.95,0.07,19.91,0.08,29.86,0c2.05-0.02,2.71,0.72,2.66,2.71c-0.1,4.47-0.07,8.95-0.02,13.42c0.06,4.88,3.05,8.16,7.32,8.14
		c4.25-0.02,7.15-3.34,7.18-8.29c0.03-4.47,0.06-8.95-0.03-13.42c-0.03-1.81,0.45-2.6,2.45-2.58c10.77,0.09,21.55,0.1,32.32,0.02
		c2.04-0.02,2.44,0.84,2.41,2.61c-0.06,4.66-0.15,9.32,0.06,13.97c0.24,5.56,5.07,8.94,9.78,6.97c2.96-1.24,4.57-3.54,4.59-6.82
		c0.03-4.75,0.08-9.5,0.05-14.24c-0.01-1.65,0.43-2.51,2.31-2.5c11.96,0.07,23.92,0.05,35.88,0.07
		C236.46,196.85,236.89,196.98,237.59,197.08z"/>
	<path class="st1" d="M139.53,181.77c0.71-3.76,1.24-7.02,1.95-10.24c0.78-3.51,1.76-6.98,2.6-10.48c0.42-1.75,0.94-3.52,1.04-5.31
		c0.13-2.24,1.24-3.05,3.29-3.05c1.64,0,3.29,0.07,4.92-0.06c2.35-0.19,3.69,1.05,4.17,3.08c1.32,5.62,2.47,11.28,3.69,16.92
		c0.48,2.21,1.13,4.39,1.41,6.62c0.15,1.23,0.98,3.02-1.46,3.37c-3.06,0.45-4.86-0.16-5.37-2.35c-0.46-2-0.55-4.09-0.87-6.13
		c-0.3-1.87-0.56-3.76-1.1-5.57c-0.45-1.48-2.77-1.66-3.84-0.32c-0.6,0.75-1.1,1.72-1.29,2.66c-0.53,2.63-1.12,5.29-1.23,7.96
		c-0.11,2.72-1.27,3.87-3.85,3.65C142.16,182.38,140.74,182,139.53,181.77z M154.03,160.75c-1.29-1.17-2.1-1.9-2.9-2.63
		c-0.51,0.71-1.55,1.53-1.43,2.09c0.22,1.01,1.14,1.86,1.77,2.78C152.13,162.4,152.81,161.81,154.03,160.75z"/>
	<path class="st1" d="M192.52,165.45c1.94-3.44,3.87-6.89,5.82-10.33c1.55-2.73,3.76-3.21,6.78-1.26c-1.77,2.93-3.4,5.97-5.36,8.79
		c-2.3,3.3-2.21,6,0.09,9.65c1.9,3,3.31,6.32,4.98,9.57c-5.13,1.86-6.87,0.55-8.96-5.31c-0.82-2.32-2.34-4.39-3.54-6.57
		c-0.36,0.09-0.72,0.18-1.08,0.26c-0.22,1.17-0.66,2.34-0.62,3.5c0.07,2.02,0.47,4.03,0.66,6.04c0.15,1.57-0.26,2.75-2.2,2.62
		c-0.54-0.04-1.09,0.06-1.64,0.06c-3.41-0.01-3.58-0.35-3.39-3.75c0.45-7.66,0.78-15.32,1.06-22.99c0.06-1.66,0.22-3.04,2.27-2.88
		c1.89,0.14,2.57,1.38,2.55,3.21c-0.03,2.4-0.02,4.81,0.19,7.2c0.07,0.74,0.85,1.42,1.3,2.13
		C191.8,165.4,192.16,165.43,192.52,165.45z"/>
	<path class="st1" d="M115.06,157.42c-1.8,0.16-3.61,0.56-5.38,0.42c-4.02-0.32-4.71,0.13-4.79,4.05c-0.1,4.47-0.14,8.95-0.22,13.42
		c-0.03,1.51,0.64,2.07,2.18,2.01c2.99-0.12,5.99-0.15,8.98-0.04c0.74,0.03,2,0.7,2.06,1.19c0.13,1.09-0.11,2.4-0.68,3.32
		c-0.35,0.57-1.59,0.81-2.44,0.82c-4.73,0.06-9.47,0.03-14.21-0.02c-2.83-0.03-3.85-1.38-3.56-4.19c0.62-6.09,1.12-12.19,1.74-18.28
		c0.2-1.97,0.41-4.01,1.09-5.83c0.29-0.78,1.81-1.47,2.8-1.53c2.89-0.16,5.88-0.34,8.68,0.23c1.53,0.31,2.75,2.11,4.11,3.24
		C115.31,156.62,115.18,157.02,115.06,157.42z"/>
	<path class="st1" d="M71.36,182.48c-2.28,0.46-3.06-0.61-2.93-2.7c0.3-4.65,0.62-9.29,0.85-13.94c0.16-3.27,0.24-6.55,0.28-9.82
		c0.02-1.56,0-3,2.15-3.01c2.23-0.01,2.27,1.43,2.37,3.14c0.22,3.99,0.7,7.96,0.95,11.95c0.26,4.2,0.59,8.42,0.36,12.6
		c-0.05,0.88-2.42,1.64-3.72,2.45C71.57,182.92,71.47,182.7,71.36,182.48z"/>
	<path class="st0" d="M154.03,160.75c-1.22,1.06-1.89,1.65-2.57,2.24c-0.63-0.92-1.55-1.77-1.77-2.78
		c-0.12-0.57,0.91-1.39,1.43-2.09C151.93,158.85,152.73,159.58,154.03,160.75z"/>
</g>
</svg>
