<?xml version="1.0" encoding="utf-8"?>
<!-- Generator: Adobe Illustrator 23.0.1, SVG Export Plug-In . SVG Version: 6.00 Build 0)  -->
<svg version="1.1" id="Capa_1" xmlns="http://www.w3.org/2000/svg" xmlns:xlink="http://www.w3.org/1999/xlink" x="0px" y="0px"
	 viewBox="0 0 259.31 257.36" style="enable-background:new 0 0 259.31 257.36;" xml:space="preserve">
<style type="text/css">
	.st0{fill:none;}
	.st1{fill:#FFFFFF;stroke:#070707;stroke-miterlimit:10;}
	.st2{fill:none;stroke:#070707;}
	.st3{fill:none;stroke:#070707;stroke-miterlimit:10;}
	.st4{fill:#FFFDFD;stroke:#070707;stroke-miterlimit:10;}
</style>
<g>
	<path class="st0" d="M0,262.11c0-88,0-176,0-264.04c86.41,0,172.82,0,259.31,0c0,87.99,0,176.01,0,264.04
		C172.89,262.11,86.45,262.11,0,262.11z M127.06,252.03c66.66,0.95,121.34-52.53,122.37-119.57C250.49,63.42,197.3,8.05,130.05,7.48
		C63.76,6.91,9.78,61.48,9.3,129.54C8.84,195.68,62.46,251.45,127.06,252.03z"/>
	<path class="st1" d="M127.06,252.03C62.46,251.45,8.84,195.68,9.3,129.54C9.78,61.48,63.76,6.91,130.05,7.48
		c67.25,0.57,120.44,55.95,119.38,124.98C248.39,199.49,193.71,252.97,127.06,252.03z M91.81,47.22c0.38-0.02,0.75-0.04,1.13-0.05
		c0.32,1.16,0.84,2.31,0.92,3.48c0.85,11.9,1.55,23.82,2.45,35.71c0.4,5.25-1.19,9.68-4.52,13.56c-2.36,2.75-3.16,5.96-2.95,9.53
		c0.42,7.28,0.84,14.55,1.18,21.83c0.07,1.42,0.46,2.08,1.93,2.08c10.61-0.02,21.23,0.03,31.84-0.08c0.65-0.01,1.77-1.1,1.86-1.79
		c0.36-2.87,0.46-5.77,0.56-8.67c0.1-2.91-1.04-5.13-3.81-6.25c-2.61-1.04-3.65-2.92-3.42-5.77c0.8-9.97,1.11-19.99,2.37-29.9
		c1.35-10.57,4.18-20.85,9.69-30.08c0.9-1.51,2.57-2.91,4.2-3.54c2.96-1.15,4.68,0.28,4.54,3.49c-0.56,12.45-1.34,24.9-1.79,37.36
		c-0.51,14.21-0.75,28.43-1.13,42.64c-0.04,1.62,0.24,2.62,2.23,2.61c11.13-0.08,22.26-0.06,33.39-0.02
		c1.66,0.01,2.27-0.64,2.35-2.3c0.28-5.61,0.66-11.22,1.02-16.83c0.21-3.3-0.71-6.21-2.59-8.9c-2.9-4.15-5.8-8.3-8.51-12.58
		c-8.55-13.49-4.23-30.73,3.16-39.37c6.88-8.04,17.08-8.52,23.85-0.45c8.32,9.91,11.18,21.57,6.28,33.87
		c-2.62,6.56-7.15,12.35-11,18.36c-1.83,2.85-2.84,5.78-2.63,9.16c0.32,5.26,0.74,10.52,0.9,15.78c0.08,2.59,0.97,3.4,3.56,3.38
		c16.65-0.15,33.31-0.16,49.96-0.11c2.12,0.01,2.58-0.76,2.6-2.74c0.23-19.76-4.26-38.35-13.58-55.63
		c-22.19-41.13-65.85-64.12-111.63-58.44C81.93,20.81,55.13,38.03,35.9,67.13c-12.62,19.1-18.65,40.38-18.49,63.44
		c0.01,1.66,0.05,2.82,2.27,2.81c18.98-0.07,37.97-0.05,56.95-0.02c1.57,0,2.39-0.48,2.46-2.21c0.34-7.54,0.79-15.08,1.12-22.63
		c0.14-3.09-0.84-5.82-2.76-8.29c-2.36-3.04-4.68-6.22-4.77-10.31c-0.28-13.55,0.58-27.04,2.68-40.43c0.13-0.81,0.68-1.55,1.04-2.33
		c0.37,0.05,0.74,0.09,1.1,0.14c0.07,2.36,0.2,4.72,0.19,7.08c-0.03,8.17-0.15,16.34-0.12,24.5c0,1.27,0.62,2.54,0.95,3.81
		c0.37-0.05,0.74-0.1,1.11-0.15c0.21-1.32,0.59-2.63,0.62-3.95c0.15-7.9,0.21-15.81,0.33-23.71c0.03-2.11,0.13-4.22,0.33-6.31
		c0.04-0.43,0.68-0.81,1.05-1.21c0.28,0.39,0.73,0.74,0.81,1.17c0.14,0.76,0.08,1.57,0.08,2.36c0.02,9.22-0.02,18.44,0.13,27.66
		c0.02,1.34,0.98,2.67,1.5,4.01c0.45-1.3,1.25-2.59,1.28-3.9c0.22-9.22,0.26-18.44,0.4-27.66c0.02-1.23,0.22-2.45,0.34-3.67
		c0.36-0.03,0.72-0.07,1.09-0.1c0.28,1.22,0.78,2.45,0.79,3.67c0.09,6.32,0.02,12.65,0.08,18.97c0.04,3.33,0.17,6.67,0.42,9.99
		c0.07,0.91,0.72,1.78,1.11,2.67c0.48-0.92,1.29-1.81,1.37-2.76c0.25-3.06,0.31-6.14,0.28-9.21c-0.07-6.59-0.29-13.17-0.36-19.75
		C91.26,49.62,91.62,48.42,91.81,47.22z M18.23,141.67c0,0.84-0.07,1.53,0.01,2.2c1.45,12.04,4.77,23.52,9.76,34.53
		c0.88,1.95,1.97,2.68,4.1,2.66c14.4-0.1,28.81-0.08,43.21-0.08c50.46,0,100.92-0.01,151.38,0.05c2.22,0,3.48-0.6,4.22-2.8
		c2.25-6.63,4.93-13.12,6.88-19.84c1.54-5.33,2.24-10.92,3.37-16.72C166.48,141.67,92.44,141.67,18.23,141.67z M224.47,189.49
		c-0.66-0.1-1.07-0.22-1.48-0.22c-11.3-0.02-22.6-0.01-33.9-0.07c-1.78-0.01-2.19,0.82-2.18,2.41c0.03,4.57-0.02,9.13-0.05,13.7
		c-0.02,3.16-1.54,5.37-4.34,6.56c-4.45,1.9-9.01-1.36-9.24-6.71c-0.19-4.47-0.11-8.96-0.05-13.43c0.02-1.7-0.35-2.53-2.28-2.51
		c-10.18,0.08-20.36,0.07-30.54-0.01c-1.89-0.02-2.35,0.75-2.32,2.49c0.08,4.3,0.05,8.61,0.03,12.91c-0.03,4.76-2.77,7.95-6.78,7.97
		c-4.04,0.02-6.86-3.13-6.92-7.83c-0.05-4.3-0.08-8.61,0.02-12.91c0.04-1.92-0.57-2.62-2.51-2.61c-9.4,0.07-18.81,0.07-28.21,0
		c-1.82-0.01-2.44,0.68-2.42,2.45c0.05,4.39,0.05,8.78-0.01,13.17c-0.07,4.46-3.05,7.62-6.98,7.53c-3.79-0.09-6.58-3.26-6.63-7.61
		c-0.05-4.3-0.12-8.61,0.02-12.91c0.07-2.15-0.73-2.65-2.7-2.64c-12.68,0.07-25.36,0.02-38.04,0.02c-0.82,0-1.64,0.1-2.58,0.17
		c14.07,25.84,47.54,52.69,90.54,54.35C172.53,245.57,208.71,217.51,224.47,189.49z"/>
	<path class="st2" d="M91.81,47.22c-0.19,1.2-0.54,2.4-0.53,3.6c0.08,6.59,0.29,13.17,0.36,19.75c0.03,3.07-0.03,6.15-0.28,9.21
		c-0.08,0.95-0.89,1.84-1.37,2.76c-0.38-0.89-1.04-1.75-1.11-2.67c-0.25-3.32-0.38-6.66-0.42-9.99c-0.07-6.32,0.01-12.65-0.08-18.97
		c-0.02-1.23-0.52-2.45-0.79-3.67c-0.36,0.03-0.72,0.07-1.09,0.1c-0.12,1.22-0.32,2.45-0.34,3.67c-0.13,9.22-0.18,18.44-0.4,27.66
		c-0.03,1.31-0.83,2.6-1.28,3.9c-0.52-1.34-1.48-2.66-1.5-4.01c-0.15-9.22-0.11-18.44-0.13-27.66c0-0.79,0.06-1.6-0.08-2.36
		c-0.08-0.43-0.53-0.78-0.81-1.17c-0.36,0.4-1.01,0.77-1.05,1.21c-0.2,2.09-0.3,4.2-0.33,6.31c-0.12,7.9-0.18,15.81-0.33,23.71
		c-0.03,1.32-0.4,2.64-0.62,3.95c-0.37,0.05-0.74,0.1-1.11,0.15c-0.33-1.27-0.95-2.54-0.95-3.81c-0.03-8.17,0.09-16.33,0.12-24.5
		c0.01-2.36-0.12-4.72-0.19-7.08c-0.37-0.05-0.74-0.09-1.1-0.14c-0.35,0.77-0.91,1.52-1.04,2.33c-2.1,13.39-2.96,26.88-2.68,40.43
		c0.08,4.09,2.41,7.27,4.77,10.31c1.91,2.47,2.89,5.2,2.76,8.29c-0.33,7.54-0.78,15.08-1.12,22.63c-0.08,1.73-0.89,2.22-2.46,2.21
		c-18.98-0.03-37.97-0.05-56.95,0.02c-2.21,0.01-2.25-1.15-2.27-2.81c-0.16-23.06,5.87-44.34,18.49-63.44
		c19.23-29.1,46.03-46.33,80.31-50.58c45.78-5.68,89.43,17.31,111.63,58.44c9.32,17.28,13.81,35.87,13.58,55.63
		c-0.02,1.98-0.49,2.75-2.6,2.74c-16.65-0.05-33.31-0.04-49.96,0.11c-2.59,0.02-3.48-0.79-3.56-3.38
		c-0.16-5.26-0.59-10.52-0.9-15.78c-0.2-3.38,0.81-6.31,2.63-9.16c3.85-6.01,8.38-11.8,11-18.36c4.91-12.3,2.04-23.96-6.28-33.87
		c-6.77-8.07-16.97-7.59-23.85,0.45c-7.4,8.65-11.71,25.88-3.16,39.37c2.71,4.28,5.62,8.43,8.51,12.58c1.88,2.69,2.8,5.6,2.59,8.9
		c-0.36,5.61-0.74,11.22-1.02,16.83c-0.08,1.66-0.69,2.31-2.35,2.3c-11.13-0.04-22.26-0.06-33.39,0.02
		c-1.99,0.01-2.27-0.99-2.23-2.61c0.38-14.21,0.62-28.43,1.13-42.64c0.45-12.46,1.23-24.9,1.79-37.36c0.14-3.21-1.58-4.64-4.54-3.49
		c-1.62,0.63-3.29,2.02-4.2,3.54c-5.51,9.24-8.34,19.51-9.69,30.08c-1.26,9.9-1.57,19.93-2.37,29.9c-0.23,2.85,0.82,4.73,3.42,5.77
		c2.77,1.11,3.91,3.34,3.81,6.25c-0.1,2.9-0.2,5.8-0.56,8.67c-0.09,0.69-1.21,1.78-1.86,1.79c-10.61,0.11-21.23,0.06-31.84,0.08
		c-1.47,0-1.87-0.66-1.93-2.08c-0.34-7.28-0.76-14.56-1.18-21.83c-0.21-3.57,0.59-6.77,2.95-9.53c3.33-3.88,4.92-8.31,4.52-13.56
		c-0.9-11.9-1.6-23.81-2.45-35.71c-0.08-1.18-0.6-2.32-0.92-3.48C92.56,47.19,92.18,47.21,91.81,47.22z"/>
	<path class="st3" d="M18.23,141.67c74.21,0,148.24,0,222.93,0c-1.14,5.81-1.83,11.39-3.37,16.72c-1.94,6.72-4.63,13.21-6.88,19.84
		c-0.74,2.19-2,2.8-4.22,2.8c-50.46-0.06-100.92-0.06-151.38-0.05c-14.4,0-28.81-0.02-43.21,0.08c-2.13,0.02-3.21-0.71-4.1-2.66
		c-4.99-11.01-8.31-22.49-9.76-34.53C18.16,143.2,18.23,142.51,18.23,141.67z M131.82,174.76c1.14,0.22,2.48,0.58,3.85,0.7
		c2.44,0.22,3.53-0.9,3.64-3.51c0.1-2.56,0.66-5.12,1.16-7.65c0.18-0.9,0.65-1.83,1.22-2.56c1.01-1.29,3.21-1.11,3.63,0.31
		c0.51,1.73,0.76,3.56,1.04,5.35c0.31,1.96,0.39,3.97,0.83,5.9c0.48,2.11,2.18,2.69,5.07,2.26c2.31-0.34,1.53-2.06,1.38-3.24
		c-0.27-2.15-0.88-4.25-1.33-6.37c-1.16-5.43-2.24-10.87-3.49-16.27c-0.45-1.96-1.72-3.15-3.94-2.96c-1.54,0.13-3.1,0.06-4.65,0.06
		c-1.94,0-2.99,0.78-3.1,2.94c-0.09,1.72-0.59,3.42-0.98,5.11c-0.79,3.37-1.72,6.7-2.45,10.08
		C132.99,168.01,132.49,171.15,131.82,174.76z M181.89,159.07c-0.34-0.03-0.68-0.05-1.02-0.08c-0.43-0.68-1.17-1.33-1.23-2.05
		c-0.2-2.3-0.2-4.61-0.18-6.92c0.02-1.76-0.62-2.95-2.41-3.09c-1.94-0.15-2.09,1.17-2.14,2.77c-0.26,7.37-0.58,14.75-1,22.11
		c-0.19,3.27-0.03,3.6,3.2,3.61c0.52,0,1.03-0.09,1.55-0.05c1.84,0.13,2.22-1.01,2.08-2.52c-0.18-1.94-0.56-3.87-0.62-5.81
		c-0.04-1.11,0.37-2.24,0.58-3.36c0.34-0.08,0.68-0.17,1.02-0.25c1.13,2.1,2.56,4.09,3.34,6.32c1.97,5.64,3.62,6.9,8.46,5.11
		c-1.57-3.13-2.91-6.32-4.7-9.21c-2.17-3.5-2.26-6.1-0.09-9.28c1.85-2.71,3.39-5.63,5.06-8.45c-2.86-1.87-4.94-1.41-6.41,1.22
		C185.54,152.44,183.72,155.76,181.89,159.07z M108.71,151.34c0.12-0.38,0.23-0.77,0.35-1.15c-1.29-1.08-2.44-2.82-3.88-3.11
		c-2.65-0.54-5.47-0.37-8.2-0.22c-0.94,0.05-2.37,0.72-2.65,1.47c-0.65,1.75-0.84,3.71-1.03,5.61c-0.59,5.86-1.06,11.73-1.65,17.59
		c-0.27,2.71,0.69,4,3.37,4.03c4.47,0.05,8.95,0.08,13.42,0.02c0.8-0.01,1.97-0.24,2.3-0.79c0.54-0.89,0.76-2.15,0.64-3.2
		c-0.05-0.47-1.25-1.12-1.95-1.14c-2.82-0.11-5.66-0.08-8.49,0.03c-1.45,0.06-2.09-0.48-2.06-1.93c0.07-4.3,0.12-8.61,0.21-12.91
		c0.08-3.77,0.73-4.2,4.53-3.89C105.3,151.88,107.01,151.49,108.71,151.34z M67.42,175.45c0.1,0.21,0.19,0.42,0.29,0.63
		c1.23-0.78,3.47-1.51,3.52-2.36c0.22-4.02-0.1-8.08-0.34-12.12c-0.23-3.84-0.69-7.66-0.9-11.49c-0.09-1.64-0.13-3.03-2.24-3.02
		c-2.04,0-2.02,1.39-2.03,2.89c-0.04,3.15-0.11,6.3-0.26,9.45c-0.22,4.47-0.52,8.94-0.8,13.41
		C64.53,174.86,65.27,175.89,67.42,175.45z"/>
	<path class="st3" d="M224.47,189.49c-15.76,28.02-51.94,56.08-99.56,54.25c-43-1.65-76.48-28.51-90.54-54.35
		c0.94-0.06,1.76-0.17,2.58-0.17c12.68,0,25.36,0.04,38.04-0.02c1.97-0.01,2.77,0.5,2.7,2.64c-0.14,4.3-0.07,8.61-0.02,12.91
		c0.05,4.35,2.84,7.52,6.63,7.61c3.93,0.09,6.91-3.07,6.98-7.53c0.07-4.39,0.07-8.78,0.01-13.17c-0.02-1.77,0.6-2.47,2.42-2.45
		c9.4,0.07,18.81,0.08,28.21,0c1.94-0.02,2.56,0.69,2.51,2.61c-0.1,4.3-0.07,8.61-0.02,12.91c0.05,4.7,2.88,7.85,6.92,7.83
		c4.01-0.02,6.75-3.21,6.78-7.97c0.03-4.3,0.05-8.61-0.03-12.91c-0.03-1.74,0.43-2.5,2.32-2.49c10.18,0.08,20.36,0.09,30.54,0.01
		c1.93-0.01,2.3,0.81,2.28,2.51c-0.06,4.48-0.14,8.96,0.05,13.43c0.23,5.35,4.79,8.6,9.24,6.71c2.8-1.19,4.32-3.41,4.34-6.56
		c0.03-4.57,0.08-9.13,0.05-13.7c-0.01-1.58,0.4-2.42,2.18-2.41c11.3,0.07,22.6,0.05,33.9,0.07
		C223.4,189.27,223.81,189.39,224.47,189.49z"/>
	<path class="st1" d="M131.82,174.76c0.67-3.62,1.17-6.75,1.85-9.85c0.74-3.38,1.66-6.72,2.45-10.08c0.4-1.69,0.89-3.39,0.98-5.11
		c0.12-2.16,1.17-2.94,3.1-2.94c1.55,0,3.11,0.07,4.65-0.06c2.22-0.18,3.49,1.01,3.94,2.96c1.25,5.4,2.33,10.85,3.49,16.27
		c0.45,2.12,1.06,4.22,1.33,6.37c0.15,1.18,0.93,2.9-1.38,3.24c-2.89,0.43-4.59-0.15-5.07-2.26c-0.44-1.93-0.52-3.93-0.83-5.9
		c-0.28-1.8-0.52-3.62-1.04-5.35c-0.42-1.42-2.61-1.6-3.63-0.31c-0.57,0.73-1.04,1.65-1.22,2.56c-0.5,2.53-1.06,5.09-1.16,7.65
		c-0.1,2.61-1.2,3.73-3.64,3.51C134.31,175.35,132.97,174.98,131.82,174.76z M145.52,154.55c-1.22-1.12-1.98-1.83-2.74-2.53
		c-0.49,0.68-1.46,1.47-1.35,2.01c0.21,0.97,1.08,1.79,1.67,2.67C143.73,156.13,144.37,155.57,145.52,154.55z"/>
	<path class="st4" d="M181.89,159.07c1.83-3.31,3.65-6.63,5.5-9.93c1.47-2.63,3.55-3.08,6.41-1.22c-1.67,2.82-3.21,5.74-5.06,8.45
		c-2.17,3.18-2.09,5.77,0.09,9.28c1.79,2.89,3.13,6.08,4.7,9.21c-4.85,1.79-6.49,0.53-8.46-5.11c-0.78-2.23-2.21-4.22-3.34-6.32
		c-0.34,0.08-0.68,0.17-1.02,0.25c-0.21,1.12-0.62,2.25-0.58,3.36c0.07,1.94,0.44,3.87,0.62,5.81c0.14,1.51-0.24,2.65-2.08,2.52
		c-0.51-0.04-1.03,0.06-1.55,0.05c-3.23-0.01-3.39-0.34-3.2-3.61c0.42-7.37,0.74-14.74,1-22.11c0.06-1.6,0.21-2.92,2.14-2.77
		c1.79,0.14,2.43,1.32,2.41,3.09c-0.03,2.31-0.02,4.63,0.18,6.92c0.06,0.71,0.8,1.37,1.23,2.05
		C181.21,159.02,181.55,159.04,181.89,159.07z"/>
	<path class="st1" d="M108.71,151.34c-1.7,0.15-3.41,0.54-5.09,0.4c-3.8-0.31-4.45,0.13-4.53,3.89c-0.09,4.3-0.13,8.61-0.21,12.91
		c-0.02,1.45,0.61,1.99,2.06,1.93c2.83-0.12,5.66-0.15,8.49-0.03c0.7,0.03,1.89,0.67,1.95,1.14c0.12,1.05-0.1,2.31-0.64,3.2
		c-0.33,0.55-1.5,0.78-2.3,0.79c-4.47,0.06-8.95,0.03-13.42-0.02c-2.67-0.03-3.64-1.33-3.37-4.03c0.59-5.86,1.06-11.73,1.65-17.59
		c0.19-1.89,0.38-3.85,1.03-5.61c0.28-0.75,1.71-1.42,2.65-1.47c2.73-0.15,5.55-0.33,8.2,0.22c1.44,0.3,2.6,2.03,3.88,3.11
		C108.94,150.57,108.82,150.95,108.71,151.34z"/>
	<path class="st1" d="M66.99,175.45c-2.17,0.44-2.91-0.59-2.78-2.6c0.29-4.47,0.59-8.94,0.81-13.41c0.16-3.15,0.23-6.3,0.26-9.45
		c0.02-1.5,0-2.89,2.04-2.89c2.12-0.01,2.16,1.38,2.25,3.02c0.21,3.84,0.67,7.66,0.9,11.49c0.25,4.04,0.57,8.1,0.34,12.12
		c-0.05,0.85-2.3,1.57-3.54,2.36C67.18,175.87,67.08,175.66,66.99,175.45z"/>
	<path class="st0" d="M145.52,154.55c-1.15,1.02-1.79,1.59-2.42,2.15c-0.59-0.88-1.46-1.7-1.67-2.67c-0.12-0.55,0.86-1.33,1.35-2.01
		C143.54,152.72,144.3,153.42,145.52,154.55z"/>
</g>
</svg>
